<?xml version="1.0" encoding="utf-8"?>
<!-- Generator: Adobe Illustrator 25.0.1, SVG Export Plug-In . SVG Version: 6.00 Build 0)  -->
<svg version="1.1" id="图层_1" xmlns="http://www.w3.org/2000/svg" xmlns:xlink="http://www.w3.org/1999/xlink" x="0px" y="0px"
	 viewBox="0 0 15 16.9" style="enable-background:new 0 0 15 16.9;" xml:space="preserve">
<style type="text/css">
	.st0{fill:none;stroke:#181818;stroke-width:0.1;stroke-miterlimit:10;}
	.st1{fill:none;stroke:#181818;stroke-width:0.1103;stroke-miterlimit:10;}
	.st2{fill:#181818;}
	.st3{fill:none;stroke:#181818;stroke-width:0.1425;stroke-miterlimit:10;}
	.st4{fill:none;stroke:#181818;stroke-width:0.1254;stroke-miterlimit:10;}
	.st5{fill:none;stroke:#181818;stroke-width:7.020554e-02;stroke-miterlimit:10;}
	.st6{fill:none;stroke:#181818;stroke-width:0.15;stroke-miterlimit:10;}
	.st7{fill:#4B7E90;}
	.st8{fill:url(#SVGID_1_);}
	.st9{fill:url(#SVGID_2_);}
	.st10{fill:url(#SVGID_3_);}
	.st11{fill:url(#SVGID_4_);}
	.st12{fill:url(#SVGID_5_);}
	.st13{fill:url(#SVGID_6_);}
	.st14{fill:#FFFFFF;}
</style>
<line class="st0" x1="7.3" y1="1" x2="6" y2="1"/>
<path class="st0" d="M7.3,1.3H6V0.4c0-0.1,0.1-0.2,0.2-0.2h1c0.1,0,0.2,0.1,0.2,0.2V1.3z"/>
<path class="st0" d="M8.4,15.7h1.3v0.7c0,0.1-0.1,0.2-0.2,0.2h-1c-0.1,0-0.2-0.1-0.2-0.2V15.7z"/>
<line class="st0" x1="5" y1="1" x2="3.8" y2="1"/>
<path class="st0" d="M5,1.3H3.8V0.4c0-0.1,0.1-0.2,0.2-0.2h1C5,0.3,5,0.4,5,0.4V1.3z"/>
<path class="st0" d="M11.4,15.5h-9c-0.3,0-0.6-0.3-0.6-0.6v-13c0-0.3,0.3-0.6,0.6-0.6h9c0.3,0,0.6,0.3,0.6,0.6v13
	C12,15.3,11.7,15.5,11.4,15.5z"/>
<path class="st0" d="M12,13.1h0.6c0.2,0,0.3,0.1,0.5,0.1c0.2,0.1,0.3,0.3,0.4,0.5c0.1,0.3,0,0.6-0.5,0.7c-0.3,0-0.4-0.1-0.5-0.2
	c0,0-0.1-0.1-0.2-0.1l-0.3,0V13.1z"/>
<path class="st0" d="M1.8,13c0,0-0.4,0-0.4,0c-0.3,0-0.5,0.2-0.6,0.4c-0.2,0.3-0.4,0.5-0.4,0.9c0,0.2,0.1,0.4,0.3,0.5
	c0.2,0.1,0.5,0,0.6-0.2c0,0,0-0.1,0.1-0.1c0,0,0.4,0,0.4,0C1.8,14.5,1.8,13,1.8,13z"/>
<rect x="11.4" y="4.5" class="st0" width="2.5" height="0.4"/>
<rect x="12" y="4.9" class="st0" width="2" height="0.5"/>
<rect x="12.9" y="5.5" class="st0" width="0.6" height="0.4"/>
<rect x="12" y="11.1" class="st0" width="2" height="0.4"/>
<rect x="11.5" y="11.5" class="st0" width="2.5" height="0.5"/>
<rect x="13" y="12" class="st0" width="0.6" height="0.4"/>
<path class="st0" d="M1.4,11.2c0-0.2,0-0.4,0.1-0.6c0.1-0.1,0.1-0.3,0-0.3c-0.2,0-0.5,0.5-0.5,0.6c0,0.1-0.1,0.9-0.1,1.3
	s0.2,0.4,0.3,0.5s0.6,0,0.6,0v-1.2H1.5C1.5,11.4,1.4,11.3,1.4,11.2z"/>
<path class="st0" d="M1.5,5.4c0,0-0.1,0.1-0.1,0.2c-0.2,0.2-0.6,0-0.6-0.2c-0.1-0.2,0-0.5,0.1-0.7C0.9,4.4,1,4.1,1.1,3.9
	c0,0,0,0,0,0c0-0.1-0.2-0.2-0.3-0.2C0.7,3.6,0.6,3.6,0.5,3.5c-0.3-0.4,0.1-1,0.6-1c0.2,0,0.5,0,0.7,0c0,0,0,0,0,0v2.8
	C1.8,5.3,1.5,5.4,1.5,5.4z"/>
<rect x="2.7" y="15.5" class="st0" width="8" height="0.2"/>
<path class="st0" d="M12,3.7V2.4h0.9c0.2,0,0.4,0.2,0.4,0.4v0.5c0,0.2-0.2,0.4-0.4,0.4H12z"/>
<circle class="st1" cx="12.7" cy="3" r="0.3"/>
<g>
	<path class="st2" d="M12.6,3c0.1,0,0.2,0,0.3,0C12.8,3.1,12.7,3.1,12.6,3z"/>
</g>
<g>
	<path class="st2" d="M12.7,2.9c0,0.1,0,0.2,0,0.3C12.7,3.1,12.7,3,12.7,2.9z"/>
</g>
<circle class="st3" cx="12.9" cy="13.8" r="0.3"/>
<g>
	<path class="st2" d="M12.7,13.8c0.1,0,0.2,0,0.4,0C12.9,13.9,12.8,13.9,12.7,13.8z"/>
</g>
<g>
	<path class="st2" d="M12.9,13.7c0,0.1,0,0.2,0,0.4C12.9,13.9,12.9,13.8,12.9,13.7z"/>
</g>
<circle class="st3" cx="0.9" cy="14.3" r="0.3"/>
<g>
	<path class="st2" d="M0.7,14.3c0.1,0,0.2,0,0.4,0C0.9,14.3,0.8,14.3,0.7,14.3z"/>
</g>
<g>
	<path class="st2" d="M0.9,14.1c0,0.1,0,0.2,0,0.4C0.8,14.3,0.8,14.2,0.9,14.1z"/>
</g>
<g>
	<circle class="st4" cx="0.9" cy="3.1" r="0.3"/>
</g>
<path class="st5" d="M0.9,2.9H0.8c0,0,0,0-0.1,0L0.6,3.1c0,0,0,0,0,0.1l0.1,0.1c0,0,0,0,0.1,0h0.2c0,0,0,0,0.1,0l0.1-0.1
	c0,0,0,0,0-0.1L0.9,2.9C1,2.9,1,2.9,0.9,2.9z"/>
<g>
	<rect x="3.8" y="0.6" class="st2" width="1.3" height="0.1"/>
	<rect x="6" y="0.6" class="st2" width="1.3" height="0.1"/>
	<rect x="8.4" y="16.1" class="st2" width="1.3" height="0.1"/>
</g>
<line class="st6" x1="2.3" y1="13.6" x2="11.7" y2="13.6"/>
<path class="st6" d="M11.7,2.5L11.7,2.5L2.3,2.6V2.5c0,0,0,0,0,0L11.7,2.5C11.6,2.5,11.6,2.5,11.7,2.5C11.7,2.5,11.7,2.5,11.7,2.5z"
	/>
<path class="st6" d="M11.7,3.8L11.7,3.8L2.3,3.9V3.8c0,0,0,0,0,0L11.7,3.8C11.6,3.8,11.6,3.8,11.7,3.8C11.7,3.8,11.7,3.8,11.7,3.8z"
	/>
<path class="st6" d="M11.7,5.2L11.7,5.2L2.3,5.2V5.2c0,0,0,0,0,0L11.7,5.2C11.6,5.1,11.7,5.2,11.7,5.2z"/>
<path class="st6" d="M11.7,12.3L11.7,12.3l-9.4,0.1v-0.1c0,0,0,0,0,0L11.7,12.3C11.7,12.2,11.7,12.3,11.7,12.3z"/>
<path class="st6" d="M5,10.9L5,10.9L2.3,11v-0.1c0,0,0,0,0,0c0,0,0,0,0,0L5,10.9C5,10.9,5,10.9,5,10.9C5,10.9,5,10.9,5,10.9z"/>
<path class="st6" d="M5,9.4L5,9.4L2.3,9.4V9.4c0,0,0,0,0,0c0,0,0,0,0,0L5,9.4C5,9.3,5,9.3,5,9.4C5,9.4,5,9.4,5,9.4z"/>
<path class="st6" d="M5,8L5,8L2.3,8.1V8c0,0,0,0,0,0L5,8C5,8,5,8,5,8z"/>
<path class="st6" d="M5,6.6L5,6.6L2.3,6.7V6.6c0,0,0,0,0,0L5,6.6C5,6.5,5,6.5,5,6.6C5,6.6,5,6.6,5,6.6z"/>
<path class="st6" d="M11.7,10.9L11.7,10.9L10.4,11v-0.1c0,0,0,0,0,0c0,0,0,0,0,0L11.7,10.9C11.6,10.9,11.6,10.9,11.7,10.9
	C11.7,10.9,11.7,10.9,11.7,10.9z"/>
<path class="st6" d="M11.7,9.4L11.7,9.4l-1.3,0.1V9.4c0,0,0,0,0,0c0,0,0,0,0,0L11.7,9.4C11.6,9.3,11.6,9.3,11.7,9.4
	C11.7,9.4,11.7,9.4,11.7,9.4z"/>
<path class="st6" d="M11.7,8L11.7,8l-1.3,0.1V8c0,0,0,0,0,0L11.7,8C11.6,8,11.7,8,11.7,8z"/>
<path class="st6" d="M11.7,6.6L11.7,6.6l-1.3,0.1V6.6c0,0,0,0,0,0c0,0,0,0,0,0L11.7,6.6C11.6,6.5,11.6,6.5,11.7,6.6
	C11.7,6.6,11.7,6.6,11.7,6.6z"/>
<path class="st6" d="M11.7,13.6L11.7,13.6l-9.4,0.1v-0.1c0,0,0,0,0,0L11.7,13.6C11.6,13.5,11.6,13.5,11.7,13.6
	C11.7,13.5,11.7,13.5,11.7,13.6z"/>
<path class="st6" d="M11.7,14.9L11.7,14.9L2.3,15v-0.1c0,0,0,0,0,0L11.7,14.9C11.7,14.9,11.7,14.9,11.7,14.9
	C11.7,14.9,11.7,14.9,11.7,14.9z"/>
<path class="st0" d="M10.1,11.7H5.3c-0.1,0-0.1,0-0.1-0.1V5.8c0-0.1,0-0.1,0.1-0.1h4.8c0.1,0,0.1,0,0.1,0.1v5.8
	C10.2,11.6,10.1,11.7,10.1,11.7z"/>
<path class="st7" d="M9.9,7.1H5.5c-0.1,0-0.1,0-0.1-0.1V6c0-0.1,0-0.1,0.1-0.1h4.4C10,5.9,10,5.9,10,6v1C10,7.1,10,7.1,9.9,7.1z"/>
<g>
	<g>
		<g>
			<linearGradient id="SVGID_1_" gradientUnits="userSpaceOnUse" x1="5.8682" y1="6.5253" x2="6.6816" y2="6.5253">
				<stop  offset="0" style="stop-color:#2DFF8C"/>
				<stop  offset="1" style="stop-color:#00FFC9"/>
			</linearGradient>
			<path class="st8" d="M6.4,6.9c-0.1,0-0.2,0-0.3,0C6,6.7,5.9,6.6,6,6.4c0-0.2,0.2-0.3,0.4-0.3c-0.2,0-0.4,0.1-0.5,0.4
				C5.8,6.7,6,6.9,6.2,7c0.2,0,0.4-0.1,0.5-0.2C6.6,6.8,6.5,6.9,6.4,6.9z"/>
			<linearGradient id="SVGID_2_" gradientUnits="userSpaceOnUse" x1="6.064" y1="6.492" x2="6.7316" y2="6.492">
				<stop  offset="0" style="stop-color:#2DFF8C"/>
				<stop  offset="1" style="stop-color:#00FFC9"/>
			</linearGradient>
			<path class="st9" d="M6.4,6.1c-0.1,0-0.1,0-0.2,0c-0.1,0-0.2,0.1-0.2,0.1C6.2,6.2,6.4,6.1,6.4,6.1c0.2,0.1,0.2,0.3,0.2,0.4
				c0,0.1-0.1,0.3-0.3,0.3c0.1,0,0.3-0.1,0.3-0.3C6.8,6.4,6.6,6.2,6.4,6.1z"/>
			<linearGradient id="SVGID_3_" gradientUnits="userSpaceOnUse" x1="6.0383" y1="6.6668" x2="6.5716" y2="6.6668">
				<stop  offset="0" style="stop-color:#2DFF8C"/>
				<stop  offset="1" style="stop-color:#00FFC9"/>
			</linearGradient>
			<path class="st10" d="M6.4,6.6C6.4,6.6,6.4,6.6,6.4,6.6C6.4,6.6,6.4,6.6,6.4,6.6c-0.1,0-0.1,0-0.1,0c-0.1,0-0.2,0-0.2,0
				c0,0,0,0,0,0c0,0,0,0.1,0,0.1c0.1,0.2,0.3,0.1,0.4,0c0,0,0-0.1,0-0.1c0,0,0,0,0,0c0,0.1-0.1,0.1-0.1,0.2c-0.1,0-0.1,0.1-0.2,0
				c-0.1,0-0.1-0.1-0.2-0.1c0,0,0,0,0,0c0,0,0.1,0,0.1,0c0,0,0,0,0,0c0,0,0,0,0,0c0,0,0,0,0,0.1c0,0,0-0.1,0-0.1
				C6.2,6.6,6.3,6.6,6.4,6.6C6.3,6.6,6.3,6.6,6.4,6.6z"/>
			<linearGradient id="SVGID_4_" gradientUnits="userSpaceOnUse" x1="6.0313" y1="6.3824" x2="6.5616" y2="6.3824">
				<stop  offset="0" style="stop-color:#2DFF8C"/>
				<stop  offset="1" style="stop-color:#00FFC9"/>
			</linearGradient>
			<path class="st11" d="M6.5,6.4c0-0.1-0.1-0.1-0.2-0.2c-0.1,0-0.2,0-0.3,0.1c0,0,0,0.1,0,0.1c0,0,0,0,0,0c0-0.1,0.1-0.1,0.2-0.2
				C6.4,6.3,6.5,6.3,6.5,6.4C6.5,6.4,6.5,6.4,6.5,6.4c0,0.1-0.1,0.1-0.1,0.1c0,0,0,0-0.1,0c0,0,0,0,0,0c0,0,0,0,0-0.1c0,0,0,0,0,0
				c0,0,0,0.1,0,0.1c0,0-0.1,0-0.1,0c0,0-0.1,0-0.1,0c0,0,0,0,0,0c0,0,0,0,0.1,0c0,0,0.1,0,0.1,0C6.4,6.5,6.5,6.5,6.5,6.4
				C6.6,6.5,6.6,6.5,6.5,6.4C6.6,6.4,6.6,6.4,6.5,6.4z"/>
			<linearGradient id="SVGID_5_" gradientUnits="userSpaceOnUse" x1="6.1369" y1="6.6449" x2="6.1805" y2="6.6449">
				<stop  offset="0" style="stop-color:#2DFF8C"/>
				<stop  offset="1" style="stop-color:#00FFC9"/>
			</linearGradient>
			<path class="st12" d="M6.2,6.6C6.1,6.6,6.1,6.6,6.2,6.6C6.1,6.7,6.1,6.7,6.2,6.6C6.2,6.7,6.2,6.7,6.2,6.6
				C6.2,6.6,6.2,6.6,6.2,6.6z"/>
			<linearGradient id="SVGID_6_" gradientUnits="userSpaceOnUse" x1="6.4193" y1="6.4047" x2="6.4632" y2="6.4047">
				<stop  offset="0" style="stop-color:#2DFF8C"/>
				<stop  offset="1" style="stop-color:#00FFC9"/>
			</linearGradient>
			<path class="st13" d="M6.5,6.4C6.5,6.4,6.5,6.4,6.5,6.4C6.4,6.4,6.4,6.4,6.5,6.4C6.4,6.4,6.4,6.4,6.5,6.4
				C6.5,6.4,6.5,6.4,6.5,6.4z"/>
		</g>
	</g>
	<g>
		<path class="st14" d="M7.9,6.5c0,0-0.1,0-0.1,0c0,0,0,0,0,0c0,0,0,0,0,0c0,0,0-0.1,0-0.1c0.1,0,0.1,0,0.2,0c0,0,0,0,0,0
			c0,0,0-0.1,0-0.1c0,0,0,0,0,0c-0.1,0-0.2,0-0.3,0c-0.1,0-0.1,0-0.1,0.1c0,0.1,0,0.2,0.1,0.2C7.8,6.6,7.8,6.6,7.9,6.5
			C7.9,6.6,7.9,6.6,7.9,6.5c0,0.1,0,0.1,0,0.1c0,0,0,0.1-0.1,0.1c-0.1,0-0.1,0-0.2,0c0,0,0,0,0,0c0,0,0,0.1,0,0.1c0,0,0,0,0,0
			c0.1,0,0.2,0,0.3,0c0.1,0,0.1,0,0.1-0.1C8.1,6.5,8,6.5,7.9,6.5z"/>
		<path class="st14" d="M9.5,6.6c0-0.1,0-0.1-0.1-0.1c0,0-0.1,0-0.1,0c0,0,0,0,0,0c0,0,0,0,0-0.1c0,0,0,0,0,0c0,0,0,0,0,0
			c0.1,0,0.1,0,0.2,0c0,0,0,0,0,0c0,0,0-0.1,0-0.1c0,0,0,0,0,0c-0.1,0-0.2,0-0.3,0c0,0,0,0-0.1,0c0,0-0.1,0.1,0,0.1
			c0,0.1,0,0.1,0.1,0.1c0,0,0.1,0,0.1,0c0,0,0,0,0,0c0,0,0,0,0,0c0,0,0,0.1,0,0.1c-0.1,0-0.1,0-0.2,0c0,0,0,0,0,0c0,0,0,0.1,0,0.1
			c0,0,0,0,0,0c0.1,0,0.2,0,0.3,0c0,0,0,0,0.1,0C9.5,6.7,9.6,6.6,9.5,6.6z"/>
		<path class="st14" d="M9,6.3c-0.1,0-0.1,0-0.2,0c-0.1,0-0.1,0-0.1,0.1c0,0.1,0,0.2,0,0.3c0,0,0.1,0.1,0.1,0.1c0.1,0,0.1,0,0.2,0
			c0,0,0,0,0,0c0,0,0-0.1,0-0.1c0,0,0,0,0,0c0,0-0.1,0-0.1,0c0,0-0.1,0-0.1,0c0,0-0.1,0-0.1-0.1c0.1,0,0.2,0,0.2,0c0,0,0-0.1,0-0.1
			c-0.1,0-0.2,0-0.2,0c0-0.1,0-0.1,0.1-0.1C8.9,6.4,8.9,6.4,9,6.3C8.9,6.4,9,6.4,9,6.3C9,6.4,9,6.3,9,6.3C9,6.3,9,6.3,9,6.3z"/>
		<path class="st14" d="M8.3,6.3c-0.1,0-0.1,0.1-0.2,0.1c0,0,0,0.1,0,0.1c0,0,0,0,0,0.1c0,0.1,0.1,0.1,0.2,0.1c0.1,0,0.1,0,0.2,0
			c0,0,0,0,0,0c0,0,0-0.1,0-0.1c0,0,0,0,0,0c0,0-0.1,0-0.1,0c0,0-0.1,0-0.1-0.1c0,0,0-0.1,0-0.1C8.3,6.4,8.3,6.4,8.3,6.3
			c0.1,0.1,0.1,0.1,0.2,0.1c0,0,0,0,0,0c0,0,0-0.1,0-0.1C8.5,6.3,8.4,6.3,8.3,6.3z"/>
		<path class="st14" d="M7.4,6.7C7.4,6.7,7.5,6.7,7.4,6.7c0.1-0.1,0.1-0.3,0.1-0.4c0,0-0.1,0-0.1,0C7.4,6.5,7.4,6.6,7.4,6.7z"/>
		<path class="st14" d="M7.1,6.3c-0.1,0-0.2,0-0.3,0c0,0,0,0,0,0c0,0.1,0,0.3,0,0.4c0,0,0.1,0,0.1,0c0-0.1,0-0.1,0-0.2c0,0,0,0,0,0
			c0.1,0,0.1,0,0.2,0c0,0,0,0,0.1,0c0,0,0.1-0.1,0-0.2C7.3,6.3,7.2,6.3,7.1,6.3z M7.2,6.4C7.2,6.5,7.2,6.5,7.2,6.4
			C7.2,6.5,7.2,6.5,7.2,6.4C7.1,6.5,7,6.5,7,6.5c0,0,0-0.1,0-0.1c0,0,0,0,0,0C7,6.4,7.1,6.4,7.2,6.4C7.2,6.4,7.2,6.4,7.2,6.4z"/>
	</g>
</g>
<g>
	<path d="M5.5,7.7h0.3C6,7.7,6,7.8,6,7.9c0,0.1,0,0.2-0.2,0.2H5.6v0.2H5.5V7.7z M5.7,8c0.1,0,0.1,0,0.1-0.1c0-0.1,0-0.1-0.1-0.1H5.6
		L5.7,8L5.7,8z"/>
	<path d="M6.2,7.9L6.1,7.9V7.8l0.2-0.1h0.1v0.7H6.2V7.9z"/>
	<path d="M6.5,8.1c0-0.3,0-0.4,0.3-0.4c0.3,0,0.3,0.1,0.3,0.4s0,0.4-0.3,0.4C6.6,8.4,6.5,8.4,6.5,8.1z M6.9,8.1c0-0.2,0-0.2-0.1-0.2
		c-0.1,0-0.1,0-0.1,0.2s0,0.2,0.1,0.2C6.9,8.3,6.9,8.3,6.9,8.1z"/>
	<path d="M7.2,8.1c0-0.3,0-0.4,0.3-0.4c0.3,0,0.3,0.1,0.3,0.4s0,0.4-0.3,0.4C7.3,8.4,7.2,8.4,7.2,8.1z M7.6,8.1c0-0.2,0-0.2-0.1-0.2
		c-0.1,0-0.1,0-0.1,0.2s0,0.2,0.1,0.2C7.6,8.3,7.6,8.3,7.6,8.1z"/>
</g>
<g>
	<path d="M5.5,8.8h0.1v0.3h0.3V8.8h0.1v0.7H5.9V9.2H5.6v0.3H5.5V8.8z"/>
	<path d="M6.2,9.2C6.2,9,6.2,9,6.5,9C6.7,9,6.7,9,6.7,9.2c0,0.2,0,0.3-0.2,0.3C6.2,9.5,6.2,9.5,6.2,9.2z M6.6,9.2
		c0-0.2,0-0.2-0.1-0.2c-0.1,0-0.1,0-0.1,0.2c0,0.2,0,0.2,0.1,0.2C6.6,9.4,6.6,9.4,6.6,9.2z"/>
	<path d="M6.9,9.1H6.8V9L6.9,9.1V8.8H7V9h0.1v0.1H7v0.4H6.9V9.1z"/>
	<path d="M7.2,9.5L7.2,9.5c0-0.1,0.1-0.1,0.2-0.1c0.1,0,0.1,0,0.1-0.1c0-0.1,0-0.1-0.1-0.1l-0.1,0c-0.1,0-0.1-0.1-0.1-0.2
		C7.2,9,7.3,9,7.4,9c0.1,0,0.1,0,0.2,0v0.1c-0.1,0-0.1,0-0.2,0c-0.1,0-0.1,0-0.1,0.1c0,0,0,0.1,0.1,0.1l0.1,0c0.1,0,0.1,0,0.1,0.2
		c0,0.1-0.1,0.2-0.2,0.2C7.4,9.5,7.3,9.5,7.2,9.5z"/>
	<path d="M7.8,9h0.1l0,0.1h0C7.9,9,8,9,8.1,9C8.2,9,8.2,9,8.2,9.2s0,0.3-0.2,0.3c-0.1,0-0.1,0-0.2-0.1h0v0.3H7.8V9z M8.1,9.3
		c0-0.2,0-0.2-0.1-0.2c-0.1,0-0.1,0-0.1,0.1c0,0,0,0.1,0,0.1c0,0.1,0,0.1,0,0.1c0,0,0,0.1,0.1,0.1C8.1,9.4,8.1,9.4,8.1,9.3z"/>
	<path d="M8.4,9.2C8.4,9,8.4,9,8.6,9C8.8,9,8.9,9,8.9,9.2c0,0.2,0,0.3-0.2,0.3C8.4,9.5,8.4,9.5,8.4,9.2z M8.7,9.2
		c0-0.2,0-0.2-0.1-0.2c-0.1,0-0.1,0-0.1,0.2c0,0.2,0,0.2,0.1,0.2C8.7,9.4,8.7,9.4,8.7,9.2z"/>
	<path d="M9,9.1H8.9V9L9,9.1V8.8h0.1V9h0.1v0.1H9.2v0.4H9V9.1z"/>
</g>
</svg>
