<svg xmlns="http://www.w3.org/2000/svg" viewBox="0 0 220.99 223.35"><defs><style>.cls-1{fill:#6bb890;fill-rule:evenodd;}</style></defs><title>pisces logo(无文字)</title><g id="图层_1" data-name="图层 1"><path class="cls-1" d="M111.58.13a111.94,111.94,0,0,1,14.74,1,101.73,101.73,0,1,0,86.13,158.67A111.68,111.68,0,1,1,111.58.13Z" transform="translate(0.09 -0.13)"/><path class="cls-1" d="M126.72,9.59A94.15,94.15,0,0,0,44.23,58.32a89,89,0,1,1,77.83,139.49c1.54.08,3.1.12,4.66.12a94.17,94.17,0,0,0,0-188.34Z" transform="translate(0.09 -0.13)"/><path class="cls-1" d="M110.4,42.19a69.62,69.62,0,0,0-69.62,69.62C49.19,80,82.41,54.87,118.53,54.87s51.56,34.74,51.56,34.74c-11.71,13.37-33.22,11.93-33.22,11.93-14.82-15.72,2.69-33.92,2.69-33.92-22.47,13.1-8.27,33.77-8.27,33.77a255.19,255.19,0,0,0-33.92-3c-19.16-.41-22,10.14-22,10.14s5.1-7.18,22.2-7.18,22.61,7.18,43.42,7.18,36.69-14.29,36.77-14.36A69.64,69.64,0,0,0,110.4,42.19Z" transform="translate(0.09 -0.13)"/><path class="cls-1" d="M146.52,75.34a5.76,5.76,0,1,0,5.76,5.76A5.75,5.75,0,0,0,146.52,75.34Z" transform="translate(0.09 -0.13)"/><path class="cls-1" d="M110.4,181.43A69.62,69.62,0,0,0,180,111.81c-8.41,31.84-41.64,56.93-77.76,56.93S50.7,134,50.7,134c11.72-13.37,33.23-11.92,33.23-11.92C98.75,137.79,81.24,156,81.24,156c22.47-13.1,8.27-33.77,8.27-33.77a255,255,0,0,0,33.92,3c19.16.41,22-10.14,22-10.14s-5.11,7.18-22.2,7.18S100.61,115,79.79,115,43.11,129.33,43,129.4A69.66,69.66,0,0,0,110.4,181.43Z" transform="translate(0.09 -0.13)"/><path class="cls-1" d="M74.28,148.27a5.76,5.76,0,1,0-5.76-5.76A5.75,5.75,0,0,0,74.28,148.27Z" transform="translate(0.09 -0.13)"/></g></svg>